<?xml version="1.0" encoding="iso-8859-1"?>
<!-- Generator: Adobe Illustrator 16.0.0, SVG Export Plug-In . SVG Version: 6.00 Build 0)  -->
<!DOCTYPE svg PUBLIC "-//W3C//DTD SVG 1.1//EN" "http://www.w3.org/Graphics/SVG/1.1/DTD/svg11.dtd">
<svg xmlns="http://www.w3.org/2000/svg" xmlns:xlink="http://www.w3.org/1999/xlink" version="1.1" id="Capa_1" x="0px" y="0px" width="512px" height="512px" viewBox="0 0 168.353 168.354" style="enable-background:new 0 0 168.353 168.354;" xml:space="preserve">
<g>
	<g>
		<path d="M124.706,155.883c0,1.717-1.4,3.117-3.117,3.117H9.353c-1.714,0-3.118-1.4-3.118-3.117V22.247h118.471v36.264l6.235,3.635    V12.471c0-5.157-4.195-9.353-9.353-9.353H9.353C4.195,3.118,0,7.313,0,12.471v143.412c0,5.157,4.195,9.353,9.353,9.353h112.235    c5.157,0,9.353-4.195,9.353-9.353v-35.64l-6.235,3.635V155.883z M117.74,9.764c2.473,0,4.47,2.003,4.47,4.479    s-1.997,4.476-4.47,4.476s-4.481-2-4.481-4.476S115.267,9.764,117.74,9.764z M102.687,9.764c2.473,0,4.482,2.003,4.482,4.479    s-2.004,4.476-4.482,4.476c-2.472,0-4.476-2-4.476-4.476S100.215,9.764,102.687,9.764z M87.635,9.764    c2.472,0,4.481,2.003,4.481,4.479s-2.004,4.476-4.481,4.476c-2.473,0-4.47-2-4.47-4.476S85.163,9.764,87.635,9.764z" fill="#f8723a"/>
		<polygon points="168.353,91.197 130.941,69.374 130.941,83.921 81.059,83.921 81.059,98.474 130.941,98.474 130.941,113.021   " fill="#f8723a"/>
	</g>
</g>
<g>
</g>
<g>
</g>
<g>
</g>
<g>
</g>
<g>
</g>
<g>
</g>
<g>
</g>
<g>
</g>
<g>
</g>
<g>
</g>
<g>
</g>
<g>
</g>
<g>
</g>
<g>
</g>
<g>
</g>
</svg>
